# xmcd
#
# Track frame offsets: 
#        150
#        21691
#        38156
#        53217
#        70203
#        85743
#        103723
#        122480
#        144676
#        164870
#
# Disc length: 2544 seconds
#
# Revision: 1
# Processed by: cddbd v1.5.2PL0 Copyright (c) Steve Scherf et al.
# Submitted via: ExactAudioCopy v1.0b3
#
DISCID=9109ee0a
DTITLE=Bob Malone - Ain't What You Know
DYEAR=2008
DGENRE=Blues
TTITLE0=Why Not Me
TTITLE1=Butterfly
TTITLE2=Small Girl
TTITLE3=No One Can Hurt You
TTITLE4=Ain't What You Know
TTITLE5=Stay With Me
TTITLE6=Saint Christopher
TTITLE7=Cold Cold Ground
TTITLE8=Ingenue
TTITLE9=Cripple Creek
EXTD=YEAR: 2008
EXTT0=
EXTT1=
EXTT2=
EXTT3=
EXTT4=
EXTT5=
EXTT6=
EXTT7=
EXTT8=
EXTT9=
PLAYORDER=
